<?xml version="1.0" standalone="no"?>
<!DOCTYPE svg PUBLIC "-//W3C//DTD SVG 20010904//EN"
 "http://www.w3.org/TR/2001/REC-SVG-20010904/DTD/svg10.dtd">
<svg version="1.0" xmlns="http://www.w3.org/2000/svg"
 width="1024.000000pt" height="1024.000000pt" viewBox="0 0 1024.000000 1024.000000"
 preserveAspectRatio="xMidYMid meet">
<metadata>
Created by potrace 1.11, written by Peter Selinger 2001-2013
</metadata>
<g transform="translate(0.000000,1024.000000) scale(0.100000,-0.100000)"
fill="#000000" stroke="none">
<path d="M4797 8974 c-1 -1 -63 -4 -137 -8 -74 -4 -148 -9 -165 -11 -16 -2
-55 -7 -85 -10 -116 -13 -188 -25 -365 -61 -66 -13 -151 -33 -190 -44 -94 -27
-404 -128 -441 -144 -190 -83 -241 -106 -314 -141 -98 -49 -267 -143 -358
-200 -68 -43 -299 -205 -335 -234 -12 -10 -67 -56 -122 -101 -90 -74 -353
-331 -447 -436 -128 -145 -309 -396 -427 -594 -35 -58 -67 -112 -72 -120 -26
-44 -154 -309 -193 -401 -65 -155 -176 -494 -192 -588 -3 -14 -7 -34 -10 -43
-3 -9 -7 -25 -9 -35 -2 -10 -11 -53 -20 -96 -9 -43 -18 -91 -20 -105 -2 -15
-6 -44 -9 -65 -12 -77 -17 -113 -22 -157 -2 -25 -6 -61 -9 -80 -22 -162 -22
-629 0 -784 2 -17 9 -71 15 -121 5 -49 13 -103 16 -120 2 -16 6 -39 8 -50 100
-579 318 -1120 644 -1600 69 -101 195 -268 257 -340 206 -238 410 -432 634
-604 88 -67 355 -251 365 -251 2 0 33 -17 67 -39 192 -115 470 -243 714 -326
61 -20 119 -41 130 -45 43 -18 343 -91 430 -105 22 -4 45 -8 50 -9 32 -8 99
-19 200 -31 28 -3 65 -8 84 -11 88 -12 214 -17 416 -18 262 -1 398 7 570 34
33 5 83 12 110 16 28 3 52 8 55 9 3 2 26 6 50 10 164 23 600 151 765 225 22
10 69 30 105 45 288 121 686 363 930 568 19 16 60 50 90 75 58 49 367 356 410
407 14 17 46 55 71 85 115 138 299 400 372 532 15 26 46 83 70 125 143 256
277 596 358 910 16 63 31 128 34 145 3 17 7 34 9 37 2 3 7 29 10 56 4 28 11
66 16 85 5 19 12 59 15 89 4 30 8 62 10 72 3 17 10 81 21 189 7 79 17 405 11
400 -3 -3 -8 -48 -12 -100 -3 -52 -8 -106 -10 -120 -2 -14 -6 -50 -10 -80 -4
-30 -9 -68 -11 -85 -7 -42 -52 -283 -58 -310 -2 -5 -6 -27 -11 -48 -4 -20 -10
-39 -14 -42 -4 -2 -536 526 -1183 1173 -1215 1216 -1201 1201 -1237 1315 -7
21 -14 66 -15 100 -12 279 234 494 511 447 57 -10 134 -42 173 -72 14 -10 438
-432 943 -936 l919 -917 -6 65 c-6 60 -13 124 -20 160 -2 8 -6 38 -10 65 -14
94 -37 200 -81 375 -24 96 -47 198 -50 225 -4 28 -9 59 -11 70 -18 95 -21 428
-8 775 10 279 11 778 2 885 -49 559 -220 807 -640 929 -46 13 -105 27 -131 30
-26 4 -70 11 -98 16 -149 28 -640 30 -1004 4 -459 -34 -913 -37 -1080 -8 -16
3 -75 14 -130 24 -55 10 -120 22 -145 25 -25 4 -52 9 -60 10 -8 2 -46 6 -85
10 -38 4 -79 9 -90 11 -48 9 -499 25 -508 18z m153 -1778 c24 -9 65 -29 90
-43 27 -16 731 -713 1822 -1804 l1778 -1777 -25 -56 c-37 -85 -166 -331 -219
-419 -36 -61 -139 -218 -198 -301 -3 -5 -847 832 -1875 1860 -1734 1735 -1870
1874 -1899 1934 -36 75 -49 132 -45 210 7 192 139 354 329 405 61 16 185 11
242 -9z m29 -2096 c132 -25 57 45 1509 -1404 l1343 -1341 -104 -100 c-124
-119 -147 -140 -253 -227 -90 -75 -301 -228 -314 -228 -4 0 -596 588 -1314
1306 -1265 1265 -1308 1309 -1342 1380 -154 321 123 681 475 614z m-2001 -25
c47 -9 129 -43 162 -67 14 -11 809 -803 1767 -1761 l1743 -1742 -53 -25 c-78
-38 -297 -124 -422 -165 -116 -39 -403 -115 -433 -115 -25 0 -3193 3173 -3225
3230 -138 244 -17 551 247 631 39 12 75 22 80 23 16 3 97 -2 134 -9z"/>
<path d="M8961 4984 c0 -11 3 -14 6 -6 3 7 2 16 -1 19 -3 4 -6 -2 -5 -13z"/>
</g>
</svg>
