<?xml version="1.0" encoding="utf-8"?>
<!-- Generator: Adobe Illustrator 15.1.0, SVG Export Plug-In . SVG Version: 6.00 Build 0)  -->
<!DOCTYPE svg PUBLIC "-//W3C//DTD SVG 1.1//EN" "http://www.w3.org/Graphics/SVG/1.1/DTD/svg11.dtd">
<svg version="1.1" id="Normal" xmlns="http://www.w3.org/2000/svg" xmlns:xlink="http://www.w3.org/1999/xlink" x="0px" y="0px"
	 width="5669.291px" height="1984.252px" viewBox="0 0 5669.291 1984.252" enable-background="new 0 0 5669.291 1984.252"
	 xml:space="preserve">
<g id="Text_White">
	<g enable-background="new    ">
		<path fill="#FFFFFF" d="M2246.302,1484.916h377.608v117h-522.155v-832h144.547V1484.916L2246.302,1484.916z"/>
		<path fill="#FFFFFF" d="M2993.652,1612.916c-87.983,0-159.297-27.703-213.954-83.125
			c-54.656-55.406-81.969-129.203-81.969-221.375v-17.141c0-61.688,11.891-116.828,35.703-165.392
			c23.797-48.562,57.219-86.358,100.25-113.405c43.031-27.031,91.031-40.562,143.969-40.562c84.172,0,149.203,26.891,195.094,80.672
			s68.844,129.859,68.844,228.266v56.062h-403.891c4.188,50.828,21.219,91.031,51.125,120.625
			c29.891,29.594,67.5,44.375,112.828,44.375c63.594,0,115.391-25.641,155.391-76.953l74.845,71.406
			c-24.767,36.953-57.812,65.609-99.125,85.984C3091.433,1602.729,3045.058,1612.916,2993.652,1612.916z M2977.073,1082.916
			c-38.094,0-68.844,13.391-92.266,40.156c-23.438,26.766-38.375,64.047-44.844,111.844h264.5v-10.328
			c-3.048-46.641-15.423-81.906-37.125-105.812C3045.619,1094.869,3015.541,1082.916,2977.073,1082.916z"/>
		<path fill="#FFFFFF" d="M3479.732,983.916l4,64.031c43.406-50.688,102.828-76.031,178.233-76.031
			c82.642,0,139.203,31.641,169.672,94.906c44.938-63.267,108.156-94.906,189.672-94.906c68.172,0,118.922,18.875,152.25,56.594
			c33.312,37.734,50.359,93.375,51.125,166.938v406.469h-138.828v-402.281c0-39.233-8.577-68-25.702-86.28
			c-17.142-18.281-45.517-27.438-85.125-27.438c-31.609,0-57.406,8.484-77.406,25.438c-20,16.953-33.983,39.141-41.983,66.562
			l0.562,424h-138.812v-406.859c-1.906-72.75-39.048-109.141-111.406-109.141c-55.609,0-95.031,22.672-118.267,68v448h-138.812v-618
			L3479.732,983.916L3479.732,983.916z"/>
		<path fill="#FFFFFF" d="M4341.199,1286.697c0-60.547,11.984-115.109,35.984-163.672c24-48.563,57.703-85.875,101.125-111.97
			c43.422-26.094,93.312-39.141,149.688-39.141c83.406,0,151.094,26.859,203.094,80.562
			c51.984,53.703,80.078,124.923,84.267,213.656l0.562,32.562c0,60.938-11.719,115.406-35.141,163.391
			c-23.422,48-56.938,85.125-100.547,111.406s-93.969,39.422-151.094,39.422c-87.22,0-157.017-29.031-209.392-87.125
			c-52.375-58.078-78.547-135.484-78.547-232.234L4341.199,1286.697L4341.199,1286.697z M4480.027,1298.416
			c0,63.656,13.141,113.484,39.422,149.484c26.281,36.016,62.844,54.016,109.688,54.016s83.297-18.281,109.392-54.875
			c26.095-36.578,39.142-90.125,39.142-160.625c0-62.5-13.438-112.031-40.281-148.625c-26.844-36.578-63.312-54.875-109.391-54.875
			c-45.328,0-81.328,18.016-107.984,54.016C4493.355,1172.947,4480.027,1226.775,4480.027,1298.416z"/>
		<path fill="#FFFFFF" d="M5162.388,983.916l4,70.891c45.688-55.25,105.672-82.891,179.953-82.891
			c128.72,0,194.233,73.75,196.53,221.25v408.75h-138.828v-400.578c0-39.219-8.483-68.266-25.422-87.125
			c-16.953-18.859-44.655-28.297-83.125-28.297c-56,0-97.703,25.344-125.108,76v440H5031.56v-618H5162.388z"/>
	</g>
	<g enable-background="new    ">
		<path fill="#E49337" d="M2008.824,315.277v198.906c69.033-0.585,97.114-62.597,97.114-119.344
			c0-49.727-14.626-113.494-115.835-113.494c-69.032,0-124.024,42.122-124.024,118.173c0,47.973,18.722,64.354,24.571,69.618
			c-43.292,0-70.203-20.476-70.203-70.788c0-74.298,83.658-138.064,178.433-138.064c103.549,0,162.052,55.577,162.052,125.78
			c0,65.521-46.803,146.255-139.235,146.255h-12.87v166.73h-63.184V324.052L2008.824,315.277z"/>
		<path fill="#E49337" d="M2246.924,406.541v49.142c18.136-27.496,35.687-52.066,69.033-52.066c26.324,0,38.61,15.795,38.61,35.101
			c0,23.401-17.551,30.421-26.911,30.421c-13.455,0-15.795-14.625-32.762-14.625c-17.551,0-34.516,15.21-47.972,29.251v215.288
			h-58.502V406.541H2246.924z"/>
		<path fill="#E49337" d="M2583.893,496.049h3.511c32.177,0,60.843-15.211,80.147-35.102l8.774,15.795
			c-15.211,25.156-53.821,42.122-89.509,47.972c0,7.605,0.586,15.795,0.586,23.986c0,95.942-36.855,153.86-100.039,153.86
			c-52.066,0-109.398-35.687-109.398-136.311c0-68.448,26.325-162.636,114.078-162.636
			C2553.472,403.615,2576.287,443.982,2583.893,496.049z M2558.152,540.51c0-4.68,0-9.359-0.585-14.041
			c-22.229-1.17-31.591-9.359-31.591-29.251c0-18.136,8.19-24.571,23.399-25.156c-9.359-26.91-24.569-36.271-42.121-36.271
			c-48.557,0-66.106,70.788-66.106,128.12c0,76.053,30.421,94.188,56.747,94.188C2538.846,658.1,2558.152,614.808,2558.152,540.51z"
			/>
		<path fill="#E49337" d="M2689.189,406.541v280.226c39.781-12.87,60.258-26.911,68.447-92.434h21.646
			c-12.285,83.073-38.025,97.698-90.094,113.494v37.44c0,73.128-33.931,100.039-73.128,100.039
			c-38.611,0-62.012-25.74-62.012-57.332c0-40.366,38.61-66.107,76.638-81.902V406.541H2689.189z M2630.687,770.424v-40.952
			c-38.611,17.552-53.822,34.518-53.822,56.162c0,17.551,10.53,29.251,28.081,29.251
			C2626.007,814.885,2630.687,797.92,2630.687,770.424z M2658.768,283.101c21.061,0,39.196,18.136,39.196,39.197
			c0,21.646-18.136,38.611-39.196,38.611c-21.646,0-38.611-16.966-38.611-38.611
			C2620.156,301.236,2637.123,283.101,2658.768,283.101z"/>
		<path fill="#E49337" d="M2813.209,582.047c5.852,62.012,33.931,76.053,67.278,76.053c36.855,0,71.957-18.136,92.435-63.768h18.721
			c-19.891,57.332-75.469,108.229-135.141,108.229c-53.822,0-105.89-35.101-105.89-135.14c0-65.521,27.496-163.806,111.739-163.806
			c38.611,0,77.809,14.041,77.809,76.053C2940.158,534.075,2892.187,573.271,2813.209,582.047z M2902.718,473.818
			c0-29.251-10.531-41.537-29.252-41.537c-40.951,0-60.841,69.618-60.841,126.95
			C2867.615,550.456,2902.718,517.694,2902.718,473.818z"/>
		<path fill="#E49337" d="M3115.074,465.627c0-18.136-11.699-31.006-32.176-31.006c-42.121,0-54.992,68.447-54.992,124.023
			c0,81.903,31.006,99.454,69.033,99.454c40.951,0,69.033-20.477,88.924-63.768h19.892
			c-18.722,57.332-70.789,108.229-128.121,108.229c-53.822,0-111.738-35.101-111.738-136.31
			c0-64.938,19.892-162.636,108.229-162.636c49.143,0,75.469,24.57,75.469,70.203c0,19.306-7.605,34.516-22.816,34.516
			c-9.361,0-16.381-4.68-21.646-12.285C3111.566,490.784,3115.074,476.743,3115.074,465.627z"/>
		<path fill="#E49337" d="M3244.363,317.617v88.924h45.048v20.476h-45.048v178.433c0,18.136,0,52.651,25.74,52.651
			c5.853,0,16.967-1.756,21.646-3.511c0.584,3.511,1.17,6.437,1.17,10.53c0,26.911-26.325,37.44-49.143,37.44
			c-46.801,0-57.916-43.875-57.916-82.487V427.016h-19.891V406.54h19.891v-80.733L3244.363,317.617z"/>
	</g>
</g>
<g id="Icon">
	<path id="Lemon_1_" fill="#FAD53E" d="M1774,1042.055c0-77.664-10.78-152.808-30.927-224.021
		c-40.215-142.167,40.326-429.07-63.284-528.637c-109.352-105.087-405.824-19.771-560.022-51.634
		c-53.942-11.147-109.818-17.003-167.062-17.003c-453.588,0-821.293,367.707-821.293,821.293s367.705,821.294,821.293,821.294
		C1406.295,1863.349,1774,1495.645,1774,1042.055z"/>
	<g id="Stripes_1_">
		<path fill="#FFFDE7" d="M1343.783,575.115c-48.808,0-88.374,39.566-88.374,88.374c0,24.451,9.931,46.582,25.978,62.582
			l-0.067,0.067l476.894,476.894c10.345-52.057,15.786-105.88,15.786-160.977c0-25.877-1.204-51.472-3.545-76.737l-361.35-361.35
			C1392.943,586.24,1369.663,575.115,1343.783,575.115z"/>
		<path fill="#FFFDE7" d="M1639.042,1493.293c33.959-51.548,62.256-107.153,84.031-165.925l-723.4-723.4
			c-16.162-17.728-39.442-28.853-65.322-28.853c-48.808,0-88.374,39.566-88.374,88.374c0,24.451,9.931,46.582,25.978,62.582
			l-0.068,0.068L1639.042,1493.293z"/>
		<path fill="#FFFDE7" d="M1016.357,1030.09c-16.165-17.769-39.474-28.923-65.388-28.923c-48.808,0-88.374,39.566-88.374,88.374
			c0,24.45,9.93,46.579,25.976,62.579l-0.069,0.069l551.227,551.227c47.623-35.128,91.313-75.273,130.294-119.661L1016.357,1030.09z
			"/>
		<path fill="#FFFDE7" d="M1163.031,1836.153c62.988-16.64,123.013-40.568,179.114-70.839l-730.099-730.1
			c-16.166-17.777-39.48-28.938-65.401-28.938c-48.808,0-88.374,39.566-88.374,88.374c0,24.449,9.93,46.579,25.975,62.578
			l-0.069,0.069L1163.031,1836.153z"/>
	</g>
	<g id="Shade">
		<path opacity="0.3" fill="#BF360C" enable-background="new    " d="M1735.291,479.583c-1.208,63.77-5.733,129.855-4.208,188.055
			C1732.318,606.401,1736.729,540.439,1735.291,479.583z"/>
		<path opacity="0.3" fill="#BF360C" enable-background="new    " d="M952.704,1863.348
			c453.591,0.001,821.296-367.703,821.296-821.293c0-9.069-0.153-18.103-0.445-27.101
			c-14.132,441.194-376.22,794.521-820.85,794.521c-444.589,0-806.65-353.266-820.843-794.403
			c-0.289,8.959-0.451,17.951-0.451,26.981C131.411,1495.641,499.116,1863.348,952.704,1863.348z"/>
	</g>
</g>
</svg>
