<?xml version="1.0" encoding="utf-8"?>
<!-- Generator: Adobe Illustrator 15.1.0, SVG Export Plug-In . SVG Version: 6.00 Build 0)  -->
<!DOCTYPE svg PUBLIC "-//W3C//DTD SVG 1.1//EN" "http://www.w3.org/Graphics/SVG/1.1/DTD/svg11.dtd">
<svg version="1.1" id="Icon" xmlns="http://www.w3.org/2000/svg" xmlns:xlink="http://www.w3.org/1999/xlink" x="0px" y="0px"
	 width="2902.68px" height="2902.68px" viewBox="0 0 2902.68 2902.68" enable-background="new 0 0 2902.68 2902.68"
	 xml:space="preserve">
<path id="Lemon_1_" fill="#FAD53E" d="M2542.366,1511.288c0-108.971-15.125-214.409-43.391-314.33
	c-56.429-199.479,56.582-602.039-88.795-741.745c-153.437-147.45-569.427-27.741-785.787-72.449
	c-75.688-15.64-154.088-23.855-234.408-23.855c-636.442,0-1152.379,515.938-1152.379,1152.381S753.545,2663.67,1389.986,2663.67
	C2026.43,2663.669,2542.366,2147.73,2542.366,1511.288z"/>
<g id="Stripes_1_">
	<path fill="#FFFDE7" d="M1938.721,856.111c-68.483,0-124,55.517-124,124c0,34.295,13.924,65.338,36.426,87.786l-0.086,0.085
		l669.159,669.159c14.515-73.037,22.146-148.553,22.146-225.854c0-36.317-1.689-72.239-4.976-107.698l-507.28-507.281
		C2007.444,871.603,1974.893,856.111,1938.721,856.111z"/>
	<path fill="#FFFDE7" d="M2353.01,2144.421c47.649-72.33,87.354-150.353,117.905-232.819L1455.608,896.295
		c-22.667-24.698-55.211-40.184-91.376-40.184c-68.483,0-124,55.517-124,124c0,34.298,13.926,65.342,36.43,87.79l-0.085,0.085
		L2353.01,2144.421z"/>
	<path fill="#FFFDE7" d="M1478.877,1494.048c-22.664-24.668-55.189-40.133-91.329-40.133c-68.484,0-124.001,55.517-124.001,124.001
		c0,34.296,13.924,65.339,36.426,87.787l-0.083,0.082l773.465,773.465c66.82-49.29,128.124-105.622,182.819-167.904
		L1478.877,1494.048z"/>
	<path fill="#FFFDE7" d="M1685.125,2625.505c88.38-23.349,172.602-56.927,251.318-99.403L911.528,1501.186
		c-22.663-24.647-55.174-40.099-91.297-40.099c-68.483,0-124,55.517-124,124c0,34.298,13.926,65.343,36.432,87.791l-0.082,0.082
		L1685.125,2625.505z"/>
</g>
<g id="Shade">
	<path opacity="0.3" fill="#BF360C" enable-background="new    " d="M2488.055,722.039c-1.694,89.494-8.047,182.241-5.905,263.916
		C2483.883,900.016,2490.074,807.443,2488.055,722.039z"/>
	<path opacity="0.3" fill="#BF360C" enable-background="new    " d="M1389.986,2663.67
		c636.444-0.001,1152.381-515.939,1152.381-1152.382c0-12.726-0.215-25.401-0.624-38.027
		c-19.829,619.055-527.884,1114.817-1151.757,1114.817c-623.793,0-1131.8-495.64-1151.748-1114.585
		c-0.404,12.551-0.631,25.146-0.631,37.796C237.607,2147.732,753.545,2663.67,1389.986,2663.67z"/>
</g>
</svg>
